# AST/ASF file generated using VICON BodyLanguage
# -----------------------------------------------
:version 1.10
:name VICON
:units
  mass 1.0
  length 0.45
  angle deg
:documentation
   .ast/.asf automatically generated from VICON data using
   VICON BodyBuilder and BodyLanguage model FoxedUp or BRILLIANT.MOD
:root
   order TX TY TZ RX RY RZ
   axis XYZ
   position 0 0 0  
   orientation 0 0 0 
:bonedata
  begin
     id 1 
     name lhipjoint
     direction 0.700308 -0.549349 0.455834 
     length 2.59063 
     axis 0 0 0  XYZ
  end
  begin
     id 2 
     name lfemur
     direction 0.34202 -0.939693 0  
     length 6.31066  
     axis 0 0 20  XYZ
    dof rx ry rz
    limits (-160.0 20.0)
           (-70.0 70.0)
           (-60.0 70.0)
  end
  begin
     id 3 
     name ltibia
     direction 0.34202 -0.939693 0   
     length 7.36093   
     axis 0 0 20   XYZ
    dof rx
    limits (-10.0 170.0)
  end
  begin
     id 4 
     name lfoot
     direction 0.0905332 -0.248738 0.96433   
     length 2.0233   
     axis -90 7.62852e-016 20   XYZ
    dof rx rz
    limits (-45.0 90.0)
           (-70.0 20.0)
  end
  begin
     id 5 
     name ltoes
     direction 1.53573e-011 -4.21855e-011 1   
     length 1.01524   
     axis -90 7.62852e-016 20   XYZ
    dof rx
    limits (-90.0 20.0)
  end
  begin
     id 6 
     name rhipjoint
     direction -0.61416 -0.607328 0.503944   
     length 2.34332  
     axis 0 0 0  XYZ 
  end
  begin
     id 7 
     name rfemur
     direction -0.34202 -0.939693 0   
     length 6.58548   
     axis 0 0 -20   XYZ
    dof rx ry rz
    limits (-160.0 20.0)
           (-70.0 70.0)
           (-70.0 60.0)
  end
  begin
     id 8 
     name rtibia
     direction -0.34202 -0.939693 0   
     length 7.20707   
     axis 0 0 -20   XYZ
    dof rx
    limits (-10.0 170.0)
 end
 begin
     id 9 
     name rfoot
     direction -0.136772 -0.375778 0.916561   
     length 1.92184  
     axis -90 -7.62852e-016 -20   XYZ
    dof rx rz
    limits (-45.0 90.0)
           (-20.0 70.0)
  end
  begin
     id 10 
     name rtoes
     direction -1.53535e-011 -4.21828e-011 1   
     length 0.951089   
     axis -90 -7.62852e-016 -20   XYZ
    dof rx
    limits (-90.0 20.0)
  end
  begin
     id 11 
     name lowerback
     direction -0.0444974 0.988086 -0.147332   
     length 1.9609   
     axis 0 0 0   XYZ
    dof rx ry rz
    limits (-20.0 45.0)
           (-30.0 30.0)
           (-30.0 30.0)
  end
  begin
     id 12 
     name upperback
     direction 0.00613146 0.999513 0.0306081   
     length 1.94944   
     axis 0 0 0   XYZ
    dof rx ry rz
    limits (-20.0 45.0)
           (-30.0 30.0)
           (-30.0 30.0)
  end
  begin
     id 13 
     name thorax
     direction 0.0254621 0.994518 0.101418   
     length 2.0119   
     axis 0 0 0   XYZ
    dof rx ry rz
    limits (-20.0 45.0)
           (-30.0 30.0)
           (-30.0 30.0)
  end
  begin
     id 14 
     name lowerneck
     direction 0.0168698 0.977854 0.208608   
     length 1.6375   
     axis 0 0 0   XYZ
    dof rx ry rz
    limits (-20.0 45.0)
           (-30.0 30.0)
           (-30.0 30.0)
  end
  begin
     id 15 
     name upperneck
     direction -0.0283988 0.989338 -0.142843   
     length 1.6851   
     axis 0 0 0   XYZ
    dof rx ry rz
    limits (-20.0 45.0)
           (-30.0 30.0)
           (-30.0 30.0)
  end
  begin
     id 16
     name head
     direction -0.0129422 0.99741 -0.0707489  
     length 1.69029  
     axis 0 0 0   XYZ
    dof rx ry rz
    limits (-20.0 45.0)
           (-30.0 30.0)
           (-30.0 30.0)
  end
  begin
     id 17 
     name lclavicle
     direction 0.820295 0.564628 -0.0911715  
     length 3.16484  
     axis 0 0 0   XYZ
    dof ry rz
    limits (-20.0 10.0)
           (0.0 20.0)
  end
  begin
     id 18 
     name lhumerus
     direction 1 -4.48969e-011 1.00186e-027   
     length 5.17853   
     axis 180 -30 -90   XYZ
    dof rx ry rz
    limits (-60.0 90.0)
           (-90.0 90.0)
           (-90.0 90.0)
  end
  begin
     id 19
     name lradius
     direction 1 -4.48966e-011 -1.52922e-027   
     length 3.40399   
     axis 180 -30 -90   XYZ
    dof rx
    limits (-10.0 170.0)
  end
  begin
     id 20
     name lwrist
     direction 1 -4.48981e-011 -3.80893e-027   
     length 1.70199   
     axis 1.1049e-015 90 90   XYZ
    dof ry
    limits (-180.0 0.0)
 end
  begin
     id 21 
     name lhand
     direction 1 -4.48957e-011 -7.61786e-027   
     length 0.708964   
     axis 4.86085e-015 90 90   XYZ
    dof rx rz
    limits (-90.0 90.0)
           (-45.0 45.0)
  end
  begin
     id 22 
     name lfingers
     direction 1 -4.48929e-011 -1.52357e-026   
     length 0.571585   
     axis 9.7217e-015 90 90   XYZ
    dof rx
    limits (0.0 90.0)
  end
  begin
     id 23
     name lthumb
     direction 0.707107 -6.34905e-011 0.707107   
     length 0.820685   
     axis -90 45 2.85299e-015   XYZ
    dof rx rz
    limits (-45.0 45.0)
           (-45.0 45.0)
  end
  begin
     id 24 
     name rclavicle
     direction -0.858602 0.463947 -0.218075   
     length 3.35137  
     axis 0 0 0   XYZ 
    dof ry rz
    limits (-10.0 20.0)
           (-20.0 0.0)
  end
  begin
     id 25 
     name rhumerus
     direction -1 -4.48969e-011 -1.98511e-027  
     length 5.42351   
     axis 180 30 90   XYZ
    dof rx ry rz
    limits (-90.0 60.0)
           (-90.0 90.0)
           (-90.0 90.0)
  end
  begin
     id 26 
     name rradius
     direction -1 -4.48961e-011 -2.82624e-027   
     length 3.42066   
     axis 180 30 90   XYZ
    dof rx
    limits (-10.0 170.0)
  end
  begin
     id 27 
     name rwrist
     direction -1 -4.48966e-011 -3.80893e-027   
     length 1.71033   
     axis 1.1049e-015 -90 -90   XYZ
    dof ry
    limits (-180.0 0.0)
  end
  begin
     id 28
     name rhand
     direction -1 -4.48964e-011 -7.61786e-027   
     length 0.743608   
     axis 4.86085e-015 -90 -90   XYZ
    dof rx rz
    limits (-90.0 90.0)
           (-45.0 45.0)
  end
  begin
     id 29
     name rfingers
     direction -1 -4.48961e-011 -1.52357e-026   
     length 0.599516   
     axis 9.7217e-015 -90 -90   XYZ
    dof rx
    limits (0.0 90.0)
  end
  begin
     id 30
     name rthumb
     direction -0.707107 -6.34913e-011 0.707107   
     length 0.860789   
     axis -90 -45 -2.85299e-015   XYZ
    dof rx rz
    limits (-45.0 45.0)
           (-45.0 45.0)
  end
:hierarchy
  begin
    root lhipjoint rhipjoint lowerback
    lhipjoint lfemur
    lfemur ltibia
    ltibia lfoot
    lfoot ltoes
    rhipjoint rfemur
    rfemur rtibia
    rtibia rfoot
    rfoot rtoes
    lowerback upperback
    upperback thorax
    thorax lowerneck lclavicle rclavicle
    lowerneck upperneck
    upperneck head
    lclavicle lhumerus
    lhumerus lradius
    lradius lwrist
    lwrist lhand lthumb
    lhand lfingers
    rclavicle rhumerus
    rhumerus rradius
    rradius rwrist
    rwrist rhand rthumb
    rhand rfingers
  end

#!OML:ASF E:\mmandel\Project 1\Capture day 1\Session 2\Subject.ASF
:FULLY-SPECIFIED
:DEGREES
879
root 7.62476 14.0108 -2.93345 8.62662 82.0716 -11.4246
lowerback 30.2183 0.600383 -2.07455
upperback 3.87633 0.320252 -0.868611
thorax -12.3211 0.357743 0.0457026
lowerneck -15.724 2.02785 2.77617
upperneck -5.10486 2.57069 -4.23081
head 1.13956 1.28806 -1.68646
rclavicle -1.19271e-014 -7.15625e-015
rhumerus -16.5787 -0.26748 -81.7659
rradius 71.4226
rwrist -373.3
rhand -18.0002 36.2647
rfingers 7.12502
rthumb 8.27013 6.44658
lclavicle -1.19271e-014 -7.15625e-015
lhumerus -0.261046 -12.9951 65.7116
lradius 64.8452
lwrist 29.6612
lhand -16.0592 -25.5754
lfingers 7.12502
lthumb 10.143 4.1601
rfemur -63.0955 -10.654 7.09012
rtibia 67.4938
rfoot -23.4902 -1.14073
rtoes -21.7985
lfemur -62.99 20.7705 -19.7846
ltibia 77.0265
lfoot -29.3044 -0.909309
ltoes 0.939661
880
root 7.62875 14.0237 -2.93717 8.29006 82.1885 -11.8131
lowerback 30.1436 0.542585 -1.9939
upperback 3.87543 0.273427 -0.870733
thorax -12.2831 0.332297 0.0158664
lowerneck -15.5863 2.06904 2.68002
upperneck -5.18808 2.64223 -4.19109
head 1.08821 1.32858 -1.65239
rclavicle -1.19271e-014 -3.33958e-014
rhumerus -16.553 -0.222643 -81.8641
rradius 71.6478
rwrist -373.224
rhand -18.0987 35.8277
rfingers 7.12502
rthumb 8.17504 6.00583
lclavicle -1.19271e-014 -3.33958e-014
lhumerus -0.318499 -12.8895 65.9778
lradius 64.6357
lwrist 29.5243
lhand -16.043 -25.9296
lfingers 7.12502
lthumb 10.1587 3.80514
rfemur -62.9654 -10.7216 7.12452
rtibia 67.3558
rfoot -23.5077 -1.12593
rtoes -21.5774
lfemur -63.0182 20.7885 -19.8225
ltibia 76.9284
lfoot -29.2771 -0.869562
ltoes 0.204685
881
root 7.6295 14.0381 -2.93801 7.74924 82.3316 -12.3268
lowerback 30.1948 0.502173 -1.9041
upperback 3.88772 0.255478 -0.839647
thorax -12.2946 0.321541 0.0062062
lowerneck -15.4756 2.14117 2.4423
upperneck -5.23256 2.77807 -4.07242
head 1.05164 1.40475 -1.56382
rclavicle -2.82274e-014 -4.77083e-015
rhumerus -16.5046 -0.183036 -81.9216
rradius 71.8282
rwrist -373.087
rhand -17.9993 35.6973
rfingers 7.12502
rthumb 8.27105 5.87918
lclavicle -2.82274e-014 -4.77083e-015
lhumerus -0.41503 -12.8121 66.2834
lradius 64.5675
lwrist 29.3684
lhand -16.028 -26.2383
lfingers 7.12502
lthumb 10.1732 3.49574
rfemur -62.7485 -10.7666 7.16851
rtibia 67.2281
rfoot -23.5473 -1.1425
rtoes -21.3307
lfemur -62.9591 20.8374 -19.8144
ltibia 76.8204
lfoot -29.3011 -1.03686
ltoes -0.151927
882
root 7.63005 14.0448 -2.93676 6.92678 82.447 -13.0842
lowerback 30.4547 0.502188 -1.81857
upperback 3.48757 0.277903 -0.829904
thorax -12.0627 0.333697 -0.03693
lowerneck -15.43 2.20961 2.41286
upperneck -5.22583 2.87481 -4.08301
head 1.04897 1.45388 -1.5566
rclavicle -1.66979e-014 1.78906e-014
rhumerus -16.4511 -0.199124 -82.0284
rradius 72.0603
rwrist -372.905
rhand -17.8455 36.1346
rfingers 7.12502
rthumb 8.41944 6.32245
lclavicle -1.66979e-014 1.78906e-014
lhumerus -0.521811 -12.832 66.5381
lradius 64.5831
lwrist 29.3569
lhand -15.9171 -26.4426
lfingers 7.12502
lthumb 10.2802 3.28614
rfemur -62.569 -10.7566 7.25227
rtibia 67.1501
rfoot -23.5448 -1.32016
rtoes -21.5823
lfemur -62.8657 20.8412 -19.7073
ltibia 76.7596
lfoot -29.289 -1.23571
ltoes 0.178529
883
root 7.62894 14.0425 -2.93459 6.64475 82.5377 -13.3618
lowerback 30.5496 0.512753 -1.77085
upperback 3.49313 0.301851 -0.870185
thorax -12.0975 0.342875 -0.115913
lowerneck -15.7015 2.18004 2.53925
upperneck -5.04832 2.81484 -4.13806
head 1.15598 1.41644 -1.59924
rclavicle -2.0276e-014 2.78299e-015
rhumerus -16.3725 -0.300208 -82.1428
rradius 72.3603
rwrist -372.663
rhand -17.4773 37.1155
rfingers 7.12502
rthumb 8.77473 7.31787
lclavicle -2.0276e-014 2.78299e-015
lhumerus -0.471788 -12.8497 66.7047
lradius 64.4493
lwrist 29.1985
lhand -15.9786 -26.6067
lfingers 7.12502
lthumb 10.2208 3.12504
rfemur -62.5473 -10.7298 7.26356
rtibia 67.1296
rfoot -23.5392 -1.52496
rtoes -21.9919
lfemur -62.8976 20.7875 -19.6638
ltibia 76.7538
lfoot -29.2355 -1.22438
ltoes 0.167028
884
root 7.62954 14.0398 -2.9333 6.91833 82.6032 -13.1434
lowerback 30.5342 0.525852 -1.79243
upperback 3.50046 0.309325 -0.895875
thorax -12.0825 0.346999 -0.134383
lowerneck -16.0419 2.06168 2.66105
upperneck -4.85178 2.63633 -4.2
head 1.2775 1.31862 -1.65105
rclavicle -1.07344e-014 -5.1684e-015
rhumerus -16.3525 -0.349727 -82.1713
rradius 72.7146
rwrist -372.358
rhand -17.1344 37.6233
rfingers 7.12502
rthumb 9.10566 7.83987
lclavicle -1.07344e-014 -5.1684e-015
lhumerus -0.419279 -12.8097 66.9102
lradius 64.3548
lwrist 29.0222
lhand -16.1112 -26.5969
lfingers 7.12502
lthumb 10.0929 3.14108
rfemur -62.5887 -10.7437 7.20138
rtibia 67.1347
rfoot -23.5793 -1.55401
rtoes -21.9649
lfemur -62.9855 20.729 -19.7228
ltibia 76.7503
lfoot -29.2269 -1.19885
ltoes 0.124984
885
root 7.63322 14.0416 -2.93228 7.31182 82.6111 -12.7678
lowerback 30.5132 0.56013 -1.89759
upperback 3.50857 0.319257 -0.900236
thorax -12.0642 0.356168 -0.0856451
lowerneck -16.1304 1.99279 2.79038
upperneck -4.84834 2.52349 -4.31189
head 1.29505 1.25712 -1.71785
rclavicle -1.03368e-014 -1.66979e-014
rhumerus -16.3607 -0.236792 -82.1967
rradius 73.0411
rwrist -372.241
rhand -16.9298 37.5417
rfingers 7.12502
rthumb 9.30312 7.76693
lclavicle -1.03368e-014 -1.66979e-014
lhumerus -0.534712 -12.8138 67.1521
lradius 64.3874
lwrist 29.176
lhand -16.0477 -26.528
lfingers 7.12502
lthumb 10.1542 3.207
rfemur -62.5705 -10.743 7.12857
rtibia 67.1164
rfoot -23.6168 -1.50999
rtoes -21.7648
lfemur -62.9517 20.6961 -19.7779
ltibia 76.6959
lfoot -29.2374 -1.16934
ltoes 0.291098
886
root 7.63725 14.0451 -2.9296 6.8428 82.6156 -13.2207
lowerback 30.5374 0.589318 -1.90378
upperback 3.5172 0.357447 -0.881121
thorax -12.0653 0.374326 -0.0764786
lowerneck -16.146 1.9662 2.9247
upperneck -4.9036 2.46683 -4.44082
head 1.28283 1.22489 -1.78793
rclavicle -1.78906e-014 2.78299e-015
rhumerus -16.2956 -0.11161 -82.2372
rradius 73.2616
rwrist -372.247
rhand -16.8167 37.45
rfingers 7.12502
rthumb 9.41224 7.68013
lclavicle -1.78906e-014 2.78299e-015
lhumerus -0.673791 -12.8191 67.381
lradius 64.3771
lwrist 29.2773
lhand -15.9185 -26.5188
lfingers 7.12502
lthumb 10.2788 3.21002
rfemur -62.4883 -10.6946 7.18286
rtibia 67.0574
rfoot -23.6197 -1.5236
rtoes -21.568
lfemur -62.8798 20.7039 -19.6965
ltibia 76.6134
lfoot -29.2018 -1.11633
ltoes 0.257361
887
root 7.64074 14.0537 -2.9254 5.74787 82.6577 -14.3251
lowerback 30.5166 0.598041 -1.80506
upperback 3.53131 0.406554 -0.847563
thorax -12.0414 0.392679 -0.112181
lowerneck -16.1527 1.92818 3.00574
upperneck -4.91044 2.40326 -4.52496
head 1.28283 1.18995 -1.83433
rclavicle 1.78906e-014 4.37326e-015
rhumerus -16.157 -0.0423951 -82.2702
rradius 73.3385
rwrist -372.153
rhand -16.9187 37.5253
rfingers 7.12502
rthumb 9.31381 7.75107
lclavicle 1.78906e-014 4.37326e-015
lhumerus -0.725601 -12.7685 67.6052
lradius 64.2675
lwrist 29.1805
lhand -15.8231 -26.5553
lfingers 7.12502
lthumb 10.3708 3.169
rfemur -62.3707 -10.6277 7.32891
rtibia 66.9603
rfoot -23.6338 -1.56577
rtoes -21.3814
lfemur -62.8309 20.7189 -19.5412
ltibia 76.507
lfoot -29.1764 -1.14737
ltoes 0.152463
888
root 7.64241 14.0654 -2.91989 5.57842 82.7556 -14.5381
lowerback 30.2954 0.601176 -1.77788
upperback 3.95606 0.426671 -0.855295
thorax -12.2674 0.394838 -0.153636
lowerneck -16.1154 1.90475 2.90688
upperneck -4.82074 2.38778 -4.4356
head 1.30191 1.18387 -1.7882
rclavicle 2.38542e-015 -1.03368e-014
rhumerus -16.0668 0.0199141 -82.3298
rradius 73.4632
rwrist -372.081
rhand -17.064 37.6632
rfingers 7.12502
rthumb 9.17361 7.88278
lclavicle 2.38542e-015 -1.03368e-014
lhumerus -0.696037 -12.7425 67.801
lradius 64.1337
lwrist 29.1759
lhand -15.7138 -26.5087
lfingers 7.12502
lthumb 10.4763 3.21024
rfemur -62.2809 -10.6391 7.36422
rtibia 66.8676
rfoot -23.6906 -1.64515
rtoes -21.4267
lfemur -62.8144 20.6835 -19.5346
ltibia 76.393
lfoot -29.1605 -1.25343
ltoes 0.224142
